<svg width="270" height="55" viewBox="0 0 270 55" fill="none" xmlns="http://www.w3.org/2000/svg">
<path d="M78.95 22.47C78.51 20.25 77.14 19.14 74.84 19.14C73.06 19.14 71.73 19.83 70.85 21.21C69.97 22.57 69.54 24.82 69.56 27.96C70.02 26.92 70.78 26.11 71.84 25.53C72.92 24.93 74.12 24.63 75.44 24.63C77.5 24.63 79.14 25.27 80.36 26.55C81.6 27.83 82.22 29.6 82.22 31.86C82.22 33.22 81.95 34.44 81.41 35.52C80.89 36.6 80.09 37.46 79.01 38.1C77.95 38.74 76.66 39.06 75.14 39.06C73.08 39.06 71.47 38.6 70.31 37.68C69.15 36.76 68.34 35.49 67.88 33.87C67.42 32.25 67.19 30.25 67.19 27.87C67.19 20.53 69.75 16.86 74.87 16.86C76.83 16.86 78.37 17.39 79.49 18.45C80.61 19.51 81.27 20.85 81.47 22.47H78.95ZM74.87 26.94C74.01 26.94 73.2 27.12 72.44 27.48C71.68 27.82 71.06 28.35 70.58 29.07C70.12 29.77 69.89 30.63 69.89 31.65C69.89 33.17 70.33 34.41 71.21 35.37C72.09 36.31 73.35 36.78 74.99 36.78C76.39 36.78 77.5 36.35 78.32 35.49C79.16 34.61 79.58 33.43 79.58 31.95C79.58 30.39 79.18 29.17 78.38 28.29C77.58 27.39 76.41 26.94 74.87 26.94ZM85.843 22.77C85.983 20.93 86.693 19.49 87.973 18.45C89.253 17.41 90.913 16.89 92.953 16.89C94.313 16.89 95.483 17.14 96.463 17.64C97.463 18.12 98.213 18.78 98.713 19.62C99.233 20.46 99.493 21.41 99.493 22.47C99.493 23.71 99.133 24.78 98.413 25.68C97.713 26.58 96.793 27.16 95.653 27.42V27.57C96.953 27.89 97.983 28.52 98.743 29.46C99.503 30.4 99.883 31.63 99.883 33.15C99.883 34.29 99.623 35.32 99.103 36.24C98.583 37.14 97.803 37.85 96.763 38.37C95.723 38.89 94.473 39.15 93.013 39.15C90.893 39.15 89.153 38.6 87.793 37.5C86.433 36.38 85.673 34.8 85.513 32.76H88.153C88.293 33.96 88.783 34.94 89.623 35.7C90.463 36.46 91.583 36.84 92.983 36.84C94.383 36.84 95.443 36.48 96.163 35.76C96.903 35.02 97.273 34.07 97.273 32.91C97.273 31.41 96.773 30.33 95.773 29.67C94.773 29.01 93.263 28.68 91.243 28.68H90.553V26.4H91.273C93.113 26.38 94.503 26.08 95.443 25.5C96.383 24.9 96.853 23.98 96.853 22.74C96.853 21.68 96.503 20.83 95.803 20.19C95.123 19.55 94.143 19.23 92.863 19.23C91.623 19.23 90.623 19.55 89.863 20.19C89.103 20.83 88.653 21.69 88.513 22.77H85.843ZM115.419 26.85V29.16H103.449V26.85H115.419ZM123.272 18.09V39H120.542V18.09H123.272ZM134.435 18.09C136.715 18.09 138.685 18.52 140.345 19.38C142.025 20.22 143.305 21.43 144.185 23.01C145.085 24.59 145.535 26.45 145.535 28.59C145.535 30.73 145.085 32.59 144.185 34.17C143.305 35.73 142.025 36.93 140.345 37.77C138.685 38.59 136.715 39 134.435 39H127.925V18.09H134.435ZM134.435 36.75C137.135 36.75 139.195 36.04 140.615 34.62C142.035 33.18 142.745 31.17 142.745 28.59C142.745 25.99 142.025 23.96 140.585 22.5C139.165 21.04 137.115 20.31 134.435 20.31H130.655V36.75H134.435ZM151.806 18.09V31.32C151.806 33.18 152.256 34.56 153.156 35.46C154.076 36.36 155.346 36.81 156.966 36.81C158.566 36.81 159.816 36.36 160.716 35.46C161.636 34.56 162.096 33.18 162.096 31.32V18.09H164.826V31.29C164.826 33.03 164.476 34.5 163.776 35.7C163.076 36.88 162.126 37.76 160.926 38.34C159.746 38.92 158.416 39.21 156.936 39.21C155.456 39.21 154.116 38.92 152.916 38.34C151.736 37.76 150.796 36.88 150.096 35.7C149.416 34.5 149.076 33.03 149.076 31.29V18.09H151.806ZM190.59 18.24V39H187.86V23.52L180.96 39H179.04L172.11 23.49V39H169.38V18.24H172.32L180 35.4L187.68 18.24H190.59ZM197.95 18.09V39H195.22V18.09H197.95Z" fill="#377DFF"/>
<g clip-path="url(#clip0)">
<path d="M21.3229 40.8321H16.8253L10.5914 30.0946C10.2902 29.5781 9.62392 29.3996 9.10496 29.6993C8.586 29.9989 8.40661 30.6621 8.70773 31.1785L14.3074 40.8321H9.7905L2.35209 28.0032L9.7905 15.1679H23.2834L28.1975 23.6419C27.3966 24.3943 26.8905 25.4591 26.8905 26.6387C26.8905 28.9086 28.7485 30.7577 31.0294 30.7577C33.3102 30.7577 35.1682 28.9086 35.1682 26.6387C35.1682 24.3688 33.3102 22.5197 31.0294 22.5197C30.7154 22.5197 30.4143 22.5579 30.1196 22.6217L24.8595 13.542C24.6609 13.204 24.3021 13 23.9113 13H9.16262C8.7718 13 8.41302 13.204 8.22081 13.542L0.148122 27.4612C-0.0440844 27.7992 -0.0440844 28.2072 0.148122 28.5452L8.22081 42.4644C8.41302 42.8023 8.77821 43.0064 9.16262 43.0064H21.3229C21.9252 43.0064 22.4121 42.5218 22.4121 41.9224C22.4121 41.3167 21.9252 40.8321 21.3229 40.8321ZM31.0358 24.6876C32.1185 24.6876 32.9963 25.5611 32.9963 26.6387C32.9963 27.7163 32.1185 28.5898 31.0358 28.5898C29.953 28.5898 29.0753 27.7163 29.0753 26.6387C29.0753 25.5675 29.953 24.6876 31.0358 24.6876ZM50.1475 27.4612L42.0748 13.542C41.8762 13.204 41.5174 13 41.1266 13H28.9663C28.3641 13 27.8772 13.4846 27.8772 14.084C27.8772 14.6833 28.3641 15.1679 28.9663 15.1679H33.464L39.6979 25.9054C39.8965 26.2561 40.2681 26.4474 40.6397 26.4474C40.8255 26.4474 41.0113 26.4028 41.1843 26.3007C41.7032 26.0011 41.8826 25.3379 41.5815 24.8215L35.9819 15.1679H40.4987L47.9436 27.9968L40.4987 40.8321H27.0058L22.0917 32.3581C22.8926 31.6057 23.3987 30.5409 23.3987 29.3613C23.3987 27.0914 21.5407 25.2423 19.2599 25.2423C16.979 25.2423 15.121 27.0914 15.121 29.3613C15.121 31.6312 16.979 33.4803 19.2599 33.4803C19.5738 33.4803 19.875 33.4421 20.1697 33.3783L25.4361 42.458C25.6283 42.796 25.9935 43 26.3779 43H41.1266C41.5174 43 41.8762 42.796 42.0684 42.458L50.1411 28.5388C50.3397 28.2072 50.3397 27.7928 50.1475 27.4612ZM19.2599 31.3124C18.1771 31.3124 17.2994 30.4389 17.2994 29.3613C17.2994 28.2837 18.1771 27.4102 19.2599 27.4102C20.3427 27.4102 21.2204 28.2837 21.2204 29.3613C21.2204 30.4389 20.3427 31.3124 19.2599 31.3124Z" fill="url(#paint0_linear)"/>
</g>
<defs>
<linearGradient id="paint0_linear" x1="25.1474" y1="13" x2="25.1474" y2="43.0064" gradientUnits="userSpaceOnUse">
<stop stop-color="#377DFF"/>
<stop offset="1" stop-color="#8FBCFF"/>
</linearGradient>
<clipPath id="clip0">
<rect width="50.2941" height="30" fill="white" transform="translate(0 13)"/>
</clipPath>
</defs>
</svg>
